<mxfile host="app.diagrams.net" modified="2023-11-05T14:03:45.567Z" agent="Mozilla/5.0 (X11; Linux x86_64) AppleWebKit/537.36 (KHTML, like Gecko) Chrome/118.0.0.0 Safari/537.36" etag="fe48jwlAJr63x_U3cCIh" version="22.0.8" type="google">
  <diagram name="semantic-gap" id="PnPLtdSD2UI9u5ThWGQr">
    <mxGraphModel grid="1" page="1" gridSize="10" guides="1" tooltips="1" connect="1" arrows="1" fold="1" pageScale="1" pageWidth="827" pageHeight="1169" math="0" shadow="0">
      <root>
        <mxCell id="0" />
        <mxCell id="1" parent="0" />
        <mxCell id="LjWWGVBAtph6ZA6vqgvy-38" value="" style="rounded=1;whiteSpace=wrap;html=1;fillColor=#FF0000;strokeColor=#b85450;sketch=1;curveFitting=1;jiggle=2;" vertex="1" parent="1">
          <mxGeometry x="470" y="90" width="30" height="490" as="geometry" />
        </mxCell>
        <mxCell id="LjWWGVBAtph6ZA6vqgvy-13" value="" style="rounded=0;whiteSpace=wrap;html=1;sketch=1;curveFitting=1;jiggle=2;" vertex="1" parent="1">
          <mxGeometry x="80" y="100" width="370" height="220" as="geometry" />
        </mxCell>
        <mxCell id="LjWWGVBAtph6ZA6vqgvy-1" value="" style="shape=hexagon;perimeter=hexagonPerimeter2;whiteSpace=wrap;html=1;fixedSize=1;fillColor=#FF8000;sketch=1;curveFitting=1;jiggle=2;strokeColor=#FF8000;" vertex="1" parent="1">
          <mxGeometry x="110" y="150" width="90" height="80" as="geometry" />
        </mxCell>
        <mxCell id="LjWWGVBAtph6ZA6vqgvy-3" value="" style="shape=hexagon;perimeter=hexagonPerimeter2;whiteSpace=wrap;html=1;fixedSize=1;fillColor=#FF8000;sketch=1;curveFitting=1;jiggle=2;strokeColor=#FF8000;" vertex="1" parent="1">
          <mxGeometry x="110" y="210" width="90" height="80" as="geometry" />
        </mxCell>
        <mxCell id="LjWWGVBAtph6ZA6vqgvy-4" value="" style="shape=hexagon;perimeter=hexagonPerimeter2;whiteSpace=wrap;html=1;fixedSize=1;fillColor=#FF8000;sketch=1;curveFitting=1;jiggle=2;strokeColor=#FF8000;" vertex="1" parent="1">
          <mxGeometry x="140" y="170" width="90" height="80" as="geometry" />
        </mxCell>
        <mxCell id="LjWWGVBAtph6ZA6vqgvy-5" value="" style="shape=hexagon;perimeter=hexagonPerimeter2;whiteSpace=wrap;html=1;fixedSize=1;fillColor=#FF8000;sketch=1;curveFitting=1;jiggle=2;strokeColor=#FF8000;" vertex="1" parent="1">
          <mxGeometry x="310" y="150" width="90" height="80" as="geometry" />
        </mxCell>
        <mxCell id="LjWWGVBAtph6ZA6vqgvy-6" value="" style="shape=hexagon;perimeter=hexagonPerimeter2;whiteSpace=wrap;html=1;fixedSize=1;fillColor=#FF8000;sketch=1;curveFitting=1;jiggle=2;strokeColor=#FF8000;" vertex="1" parent="1">
          <mxGeometry x="310" y="210" width="90" height="80" as="geometry" />
        </mxCell>
        <mxCell id="LjWWGVBAtph6ZA6vqgvy-7" value="" style="shape=hexagon;perimeter=hexagonPerimeter2;whiteSpace=wrap;html=1;fixedSize=1;fillColor=#FF8000;sketch=1;curveFitting=1;jiggle=2;strokeColor=#FF8000;" vertex="1" parent="1">
          <mxGeometry x="340" y="170" width="90" height="80" as="geometry" />
        </mxCell>
        <mxCell id="LjWWGVBAtph6ZA6vqgvy-14" value="" style="rounded=0;whiteSpace=wrap;html=1;sketch=1;curveFitting=1;jiggle=2;" vertex="1" parent="1">
          <mxGeometry x="80" y="340" width="370" height="220" as="geometry" />
        </mxCell>
        <mxCell id="LjWWGVBAtph6ZA6vqgvy-15" value="" style="shape=hexagon;perimeter=hexagonPerimeter2;whiteSpace=wrap;html=1;fixedSize=1;fillColor=#FF8000;sketch=1;curveFitting=1;jiggle=2;strokeColor=#FF8000;" vertex="1" parent="1">
          <mxGeometry x="110" y="390" width="90" height="80" as="geometry" />
        </mxCell>
        <mxCell id="LjWWGVBAtph6ZA6vqgvy-16" value="" style="shape=hexagon;perimeter=hexagonPerimeter2;whiteSpace=wrap;html=1;fixedSize=1;fillColor=#FF8000;sketch=1;curveFitting=1;jiggle=2;strokeColor=#FF8000;" vertex="1" parent="1">
          <mxGeometry x="110" y="450" width="90" height="80" as="geometry" />
        </mxCell>
        <mxCell id="LjWWGVBAtph6ZA6vqgvy-17" value="" style="shape=hexagon;perimeter=hexagonPerimeter2;whiteSpace=wrap;html=1;fixedSize=1;fillColor=#FF8000;sketch=1;curveFitting=1;jiggle=2;strokeColor=#FF8000;" vertex="1" parent="1">
          <mxGeometry x="140" y="410" width="90" height="80" as="geometry" />
        </mxCell>
        <mxCell id="LjWWGVBAtph6ZA6vqgvy-18" value="" style="shape=hexagon;perimeter=hexagonPerimeter2;whiteSpace=wrap;html=1;fixedSize=1;fillColor=#FF8000;sketch=1;curveFitting=1;jiggle=2;strokeColor=#FF8000;" vertex="1" parent="1">
          <mxGeometry x="310" y="390" width="90" height="80" as="geometry" />
        </mxCell>
        <mxCell id="LjWWGVBAtph6ZA6vqgvy-19" value="" style="shape=hexagon;perimeter=hexagonPerimeter2;whiteSpace=wrap;html=1;fixedSize=1;fillColor=#FF8000;sketch=1;curveFitting=1;jiggle=2;strokeColor=#FF8000;" vertex="1" parent="1">
          <mxGeometry x="310" y="450" width="90" height="80" as="geometry" />
        </mxCell>
        <mxCell id="LjWWGVBAtph6ZA6vqgvy-20" value="" style="shape=hexagon;perimeter=hexagonPerimeter2;whiteSpace=wrap;html=1;fixedSize=1;fillColor=#FF8000;sketch=1;curveFitting=1;jiggle=2;strokeColor=#FF8000;" vertex="1" parent="1">
          <mxGeometry x="340" y="410" width="90" height="80" as="geometry" />
        </mxCell>
        <mxCell id="LjWWGVBAtph6ZA6vqgvy-21" value="&lt;b&gt;Domain aligned data products (es Accounting)&lt;/b&gt;" style="text;html=1;strokeColor=none;fillColor=none;align=center;verticalAlign=middle;whiteSpace=wrap;rounded=0;" vertex="1" parent="1">
          <mxGeometry x="120" y="350" width="290" height="30" as="geometry" />
        </mxCell>
        <mxCell id="LjWWGVBAtph6ZA6vqgvy-22" value="&lt;b&gt;Domain aligned data products (es. Sales)&lt;/b&gt;" style="text;html=1;strokeColor=none;fillColor=none;align=center;verticalAlign=middle;whiteSpace=wrap;rounded=0;" vertex="1" parent="1">
          <mxGeometry x="110" y="110" width="300" height="30" as="geometry" />
        </mxCell>
        <mxCell id="LjWWGVBAtph6ZA6vqgvy-23" value="&lt;i&gt;Source aligned&lt;/i&gt;" style="text;html=1;strokeColor=none;fillColor=none;align=center;verticalAlign=middle;whiteSpace=wrap;rounded=0;" vertex="1" parent="1">
          <mxGeometry x="105" y="530" width="100" height="30" as="geometry" />
        </mxCell>
        <mxCell id="LjWWGVBAtph6ZA6vqgvy-24" value="&lt;i&gt;Consumer aligned&lt;/i&gt;" style="text;html=1;strokeColor=none;fillColor=none;align=center;verticalAlign=middle;whiteSpace=wrap;rounded=0;" vertex="1" parent="1">
          <mxGeometry x="314" y="530" width="100" height="30" as="geometry" />
        </mxCell>
        <mxCell id="LjWWGVBAtph6ZA6vqgvy-25" value="&lt;i&gt;Source aligned&lt;/i&gt;" style="text;html=1;strokeColor=none;fillColor=none;align=center;verticalAlign=middle;whiteSpace=wrap;rounded=0;" vertex="1" parent="1">
          <mxGeometry x="105.5" y="290" width="100" height="30" as="geometry" />
        </mxCell>
        <mxCell id="LjWWGVBAtph6ZA6vqgvy-26" value="&lt;i&gt;Consumer aligned&lt;/i&gt;" style="text;html=1;strokeColor=none;fillColor=none;align=center;verticalAlign=middle;whiteSpace=wrap;rounded=0;" vertex="1" parent="1">
          <mxGeometry x="314.5" y="290" width="100" height="30" as="geometry" />
        </mxCell>
        <mxCell id="LjWWGVBAtph6ZA6vqgvy-27" value="" style="rounded=0;whiteSpace=wrap;html=1;sketch=1;curveFitting=1;jiggle=2;" vertex="1" parent="1">
          <mxGeometry x="515" y="100" width="250" height="460" as="geometry" />
        </mxCell>
        <mxCell id="LjWWGVBAtph6ZA6vqgvy-28" value="&lt;b&gt;Value stream aligned data products &lt;br&gt;(es. Order to cash value stream)&lt;/b&gt;" style="text;html=1;strokeColor=none;fillColor=none;align=center;verticalAlign=middle;whiteSpace=wrap;rounded=0;" vertex="1" parent="1">
          <mxGeometry x="525" y="110" width="230" height="30" as="geometry" />
        </mxCell>
        <mxCell id="LjWWGVBAtph6ZA6vqgvy-29" value="" style="shape=hexagon;perimeter=hexagonPerimeter2;whiteSpace=wrap;html=1;fixedSize=1;fillColor=#FF8000;sketch=1;curveFitting=1;jiggle=2;strokeColor=#FF8000;" vertex="1" parent="1">
          <mxGeometry x="595" y="190" width="90" height="80" as="geometry" />
        </mxCell>
        <mxCell id="LjWWGVBAtph6ZA6vqgvy-30" value="" style="shape=hexagon;perimeter=hexagonPerimeter2;whiteSpace=wrap;html=1;fixedSize=1;fillColor=#FF8000;sketch=1;curveFitting=1;jiggle=2;strokeColor=#FF8000;" vertex="1" parent="1">
          <mxGeometry x="595" y="380" width="90" height="80" as="geometry" />
        </mxCell>
        <mxCell id="LjWWGVBAtph6ZA6vqgvy-31" value="" style="endArrow=classic;html=1;rounded=0;exitX=1;exitY=0.5;exitDx=0;exitDy=0;entryX=0;entryY=0.5;entryDx=0;entryDy=0;" edge="1" parent="1" source="LjWWGVBAtph6ZA6vqgvy-20" target="LjWWGVBAtph6ZA6vqgvy-29">
          <mxGeometry width="50" height="50" relative="1" as="geometry">
            <mxPoint x="270" y="500" as="sourcePoint" />
            <mxPoint x="590" y="230" as="targetPoint" />
          </mxGeometry>
        </mxCell>
        <mxCell id="LjWWGVBAtph6ZA6vqgvy-32" value="" style="endArrow=classic;html=1;rounded=0;entryX=0;entryY=0.5;entryDx=0;entryDy=0;" edge="1" parent="1" source="LjWWGVBAtph6ZA6vqgvy-7" target="LjWWGVBAtph6ZA6vqgvy-29">
          <mxGeometry width="50" height="50" relative="1" as="geometry">
            <mxPoint x="270" y="500" as="sourcePoint" />
            <mxPoint x="320" y="450" as="targetPoint" />
          </mxGeometry>
        </mxCell>
        <mxCell id="LjWWGVBAtph6ZA6vqgvy-33" value="" style="endArrow=classic;html=1;rounded=0;entryX=0;entryY=0.5;entryDx=0;entryDy=0;exitX=0.833;exitY=0.85;exitDx=0;exitDy=0;exitPerimeter=0;" edge="1" parent="1" source="LjWWGVBAtph6ZA6vqgvy-6" target="LjWWGVBAtph6ZA6vqgvy-30">
          <mxGeometry width="50" height="50" relative="1" as="geometry">
            <mxPoint x="270" y="500" as="sourcePoint" />
            <mxPoint x="320" y="450" as="targetPoint" />
          </mxGeometry>
        </mxCell>
        <mxCell id="LjWWGVBAtph6ZA6vqgvy-34" value="" style="endArrow=classic;html=1;rounded=0;entryX=0;entryY=0.5;entryDx=0;entryDy=0;exitX=1;exitY=0.75;exitDx=0;exitDy=0;" edge="1" parent="1" source="LjWWGVBAtph6ZA6vqgvy-19" target="LjWWGVBAtph6ZA6vqgvy-30">
          <mxGeometry width="50" height="50" relative="1" as="geometry">
            <mxPoint x="270" y="500" as="sourcePoint" />
            <mxPoint x="320" y="450" as="targetPoint" />
          </mxGeometry>
        </mxCell>
        <mxCell id="LjWWGVBAtph6ZA6vqgvy-36" value="&lt;i&gt;Consumer aligned&lt;/i&gt;" style="text;html=1;strokeColor=none;fillColor=none;align=center;verticalAlign=middle;whiteSpace=wrap;rounded=0;" vertex="1" parent="1">
          <mxGeometry x="590" y="280" width="100" height="30" as="geometry" />
        </mxCell>
        <mxCell id="LjWWGVBAtph6ZA6vqgvy-37" value="&lt;i&gt;Consumer aligned&lt;/i&gt;" style="text;html=1;strokeColor=none;fillColor=none;align=center;verticalAlign=middle;whiteSpace=wrap;rounded=0;" vertex="1" parent="1">
          <mxGeometry x="590" y="470" width="100" height="30" as="geometry" />
        </mxCell>
        <mxCell id="LjWWGVBAtph6ZA6vqgvy-39" value="&lt;b&gt;&lt;font color=&quot;#ff3333&quot; style=&quot;font-size: 14px;&quot;&gt;Semantic gap&lt;/font&gt;&lt;/b&gt;" style="text;html=1;strokeColor=none;fillColor=none;align=center;verticalAlign=middle;whiteSpace=wrap;rounded=0;" vertex="1" parent="1">
          <mxGeometry x="455" y="40" width="60" height="40" as="geometry" />
        </mxCell>
        <mxCell id="LjWWGVBAtph6ZA6vqgvy-43" value="" style="shape=flexArrow;endArrow=classic;html=1;rounded=0;sketch=1;curveFitting=1;jiggle=2;" edge="1" parent="1">
          <mxGeometry width="50" height="50" relative="1" as="geometry">
            <mxPoint x="240" y="220" as="sourcePoint" />
            <mxPoint x="300" y="220" as="targetPoint" />
          </mxGeometry>
        </mxCell>
        <mxCell id="LjWWGVBAtph6ZA6vqgvy-44" value="" style="shape=flexArrow;endArrow=classic;html=1;rounded=0;sketch=1;curveFitting=1;jiggle=2;" edge="1" parent="1">
          <mxGeometry width="50" height="50" relative="1" as="geometry">
            <mxPoint x="240" y="450" as="sourcePoint" />
            <mxPoint x="300" y="450" as="targetPoint" />
          </mxGeometry>
        </mxCell>
        <mxCell id="LjWWGVBAtph6ZA6vqgvy-45" value="" style="shape=flexArrow;endArrow=classic;html=1;rounded=0;width=30;endSize=8.33;sketch=1;curveFitting=1;jiggle=2;fillColor=#CCCCCC;" edge="1" parent="1">
          <mxGeometry width="50" height="50" relative="1" as="geometry">
            <mxPoint x="80" y="610" as="sourcePoint" />
            <mxPoint x="760" y="610" as="targetPoint" />
            <Array as="points">
              <mxPoint x="210" y="610" />
            </Array>
          </mxGeometry>
        </mxCell>
        <mxCell id="LjWWGVBAtph6ZA6vqgvy-46" value="&lt;font style=&quot;font-size: 17px;&quot;&gt;VALUE&lt;/font&gt;" style="edgeLabel;html=1;align=center;verticalAlign=middle;resizable=0;points=[];" connectable="0" vertex="1" parent="LjWWGVBAtph6ZA6vqgvy-45">
          <mxGeometry x="-0.0294" y="-3" relative="1" as="geometry">
            <mxPoint x="-10" y="-3" as="offset" />
          </mxGeometry>
        </mxCell>
        <mxCell id="LjWWGVBAtph6ZA6vqgvy-47" value="&lt;b&gt;&lt;u&gt;&lt;font color=&quot;#994c00&quot;&gt;Domain semantics (aka Ubiquitous languages)&lt;/font&gt;&lt;/u&gt;&lt;/b&gt;" style="text;html=1;strokeColor=#d79b00;fillColor=#ffe6cc;align=center;verticalAlign=middle;whiteSpace=wrap;rounded=0;" vertex="1" parent="1">
          <mxGeometry x="90" y="50" width="350" height="30" as="geometry" />
        </mxCell>
        <mxCell id="LjWWGVBAtph6ZA6vqgvy-48" value="&lt;b&gt;&lt;u&gt;&lt;font color=&quot;#994c00&quot;&gt;Unified semantic&lt;/font&gt;&lt;/u&gt;&lt;/b&gt;" style="text;html=1;strokeColor=#d79b00;fillColor=#ffe6cc;align=center;verticalAlign=middle;whiteSpace=wrap;rounded=0;" vertex="1" parent="1">
          <mxGeometry x="525" y="50" width="230" height="30" as="geometry" />
        </mxCell>
        <mxCell id="g-Ra9Pw-_0BL86yM_YQf-2" value="&lt;div&gt;&lt;i&gt;This work is licensed under a&lt;/i&gt;&lt;/div&gt;&lt;div&gt;&lt;b&gt;&lt;i&gt;Creative Commons Attribution 4.0 International License&lt;/i&gt;&lt;/b&gt;&lt;/div&gt;" style="text;html=1;strokeColor=none;fillColor=none;align=center;verticalAlign=middle;whiteSpace=wrap;rounded=0;fontSize=20;fontFamily=Architects Daughter;" vertex="1" parent="1">
          <mxGeometry x="80" y="670" width="680" height="60" as="geometry" />
        </mxCell>
      </root>
    </mxGraphModel>
  </diagram>
</mxfile>
